<?xml version="1.0" standalone="no"?>
<!DOCTYPE svg PUBLIC "-//W3C//DTD SVG 20010904//EN"
 "http://www.w3.org/TR/2001/REC-SVG-20010904/DTD/svg10.dtd">
<svg version="1.0" xmlns="http://www.w3.org/2000/svg"
 width="1867.000000pt" height="2134.000000pt" viewBox="0 0 1867.000000 2134.000000"
 preserveAspectRatio="xMidYMid meet">

<g transform="translate(0.000000,2134.000000) scale(0.100000,-0.100000)"
fill="#000000" stroke="none">
<path d="M3680 19994 c-19 -2 -80 -9 -135 -15 -686 -73 -1383 -348 -1940 -767
-797 -598 -1338 -1453 -1530 -2417 -62 -312 -70 -401 -70 -795 0 -361 3 -411
46 -670 137 -833 551 -1618 1165 -2210 633 -610 1403 -978 2294 -1097 174 -23
775 -26 939 -4 l103 14 684 -684 684 -684 -683 -683 -683 -683 -69 11 c-39 5
-163 15 -277 22 -486 28 -1009 -42 -1478 -199 -1285 -428 -2274 -1490 -2608
-2798 -43 -166 -82 -375 -104 -555 -21 -168 -18 -760 5 -935 148 -1145 747
-2139 1687 -2800 325 -228 752 -434 1135 -548 561 -167 1151 -210 1740 -126
998 142 1921 675 2560 1479 448 563 737 1256 832 1995 23 175 26 767 5 935
-37 301 -110 619 -201 880 l-51 145 512 512 513 513 2475 -2473 c1361 -1361
2516 -2507 2565 -2548 549 -452 1174 -716 1880 -794 185 -21 555 -21 740 0
547 60 1033 228 1502 518 197 122 515 381 630 511 138 156 162 385 61 580 -27
53 -471 501 -3522 3554 l-3491 3492 3497 3498 c2872 2873 3501 3506 3522 3549
77 155 75 334 -6 485 -36 68 -206 237 -369 368 -517 412 -1115 661 -1794 747
-208 26 -625 23 -837 -6 -674 -91 -1244 -333 -1773 -754 -66 -53 -954 -934
-2588 -2566 l-2487 -2486 -515 515 -515 515 36 95 c85 226 172 585 211 880 14
109 18 204 18 490 0 394 -8 483 -70 795 -314 1575 -1556 2817 -3130 3130 -297
59 -387 68 -750 70 -181 2 -346 1 -365 -1z m559 -2689 c271 -52 502 -175 696
-370 257 -257 389 -574 389 -935 0 -361 -132 -678 -389 -935 -257 -257 -574
-389 -935 -389 -361 0 -678 132 -935 389 -257 257 -389 574 -389 935 0 361
132 678 389 935 222 222 482 346 815 389 66 8 275 -3 359 -19z m41 -10674
c457 -105 823 -432 974 -869 54 -157 70 -253 70 -432 -1 -121 -5 -177 -22
-257 -87 -407 -349 -745 -720 -932 -89 -45 -251 -97 -356 -116 -115 -20 -337
-20 -452 0 -534 93 -960 508 -1076 1048 -28 133 -30 368 -5 499 55 278 191
525 396 720 209 199 453 316 756 362 74 11 352 -3 435 -23z"/>
</g>
</svg>
