<?xml version="1.0" encoding="utf-8"?>
<!-- Generator: Adobe Illustrator 23.0.3, SVG Export Plug-In . SVG Version: 6.00 Build 0)  -->
<svg version="1.1" id="Layer_1" xmlns="http://www.w3.org/2000/svg" xmlns:xlink="http://www.w3.org/1999/xlink" x="0px" y="0px"
	 viewBox="0 0 335 242" style="enable-background:new 0 0 335 242;" xml:space="preserve">
<style type="text/css">
	.st0{fill:#12132B;}
</style>
<title>hamburger_meny</title>
<path class="st0" d="M18.7,204.5h297.5c10.3,0,18.7,8.4,18.7,18.7v0c0,10.3-8.4,18.7-18.7,18.7H18.7C8.4,242,0,233.6,0,223.3v0
	C0,212.9,8.4,204.5,18.7,204.5z"/>
<path class="st0" d="M18.7,0l297.5,0C326.6,0,335,8.4,335,18.7v0c0,10.3-8.4,18.7-18.7,18.7H18.7C8.4,37.5,0,29.1,0,18.7v0
	C0,8.4,8.4,0,18.7,0z"/>
<path class="st0" d="M18.7,102.3h297.5c10.3,0,18.7,8.4,18.7,18.7v0c0,10.3-8.4,18.7-18.7,18.7H18.7C8.4,139.7,0,131.3,0,121v0
	C0,110.7,8.4,102.3,18.7,102.3z"/>
</svg>
