<?xml version="1.0" encoding="utf-8"?>
<!-- Generator: Adobe Illustrator 23.0.3, SVG Export Plug-In . SVG Version: 6.00 Build 0)  -->
<svg version="1.1" id="Layer_1" xmlns="http://www.w3.org/2000/svg" xmlns:xlink="http://www.w3.org/1999/xlink" x="0px" y="0px"
	 viewBox="0 0 335 270" style="enable-background:new 0 0 335 270;" xml:space="preserve">
<style type="text/css">
	.st0{fill:#B0B0B0;}
</style>
<title>hamburger_meny--white</title>
<path class="st0" d="M49.1,213.9L246.6,16.4c10.9-10.9,28.5-10.9,39.3,0l0,0c10.9,10.9,10.9,28.5,0,39.3L88.4,253.2
	c-10.9,10.9-28.5,10.9-39.3,0l0,0C38.2,242.4,38.2,224.8,49.1,213.9z"/>
<path class="st0" d="M246.6,253.6L49.1,56.1c-10.9-10.9-10.9-28.5,0-39.3l0,0c10.9-10.9,28.5-10.9,39.3,0l197.6,197.6
	c10.9,10.9,10.9,28.5,0,39.3l0,0C275.1,264.5,257.5,264.5,246.6,253.6z"/>
</svg>
