<svg xmlns="http://www.w3.org/2000/svg" viewBox="0 0 87.71 117.02"><defs><style>.cls-1{fill:#fff;}</style></defs><title>lørn-white</title><g id="Layer_2" data-name="Layer 2"><g id="Layer_1-2" data-name="Layer 1"><path class="cls-1" d="M40.47,6.31a6.31,6.31,0,1,0-11,4.18,3,3,0,0,0-.33.62l-1,2.61A14,14,0,0,0,6.26,25.23V69.72a3.35,3.35,0,0,0,6.48,1.19L28.19,30.39V44.88L5.74,103.78a3.11,3.11,0,0,0-.16.67A6.33,6.33,0,1,0,11,106.53a3.25,3.25,0,0,0,.33-.61l1-2.63a13.95,13.95,0,0,0,21.86-11.5V45.4a1,1,0,0,0,0-.16v-20a13.85,13.85,0,0,0-1.58-6.44l2.12-5.55a3.11,3.11,0,0,0,.16-.67A6.31,6.31,0,0,0,40.47,6.31Zm-28.21,49V25.23a8,8,0,0,1,13.61-5.61ZM6.31,112.52a1.81,1.81,0,1,1,1.81-1.81A1.81,1.81,0,0,1,6.31,112.52ZM20.24,99.75a7.94,7.94,0,0,1-5.64-2.36L28.19,61.73v9.89a.68.68,0,0,0,0,.14v20A8,8,0,0,1,20.24,99.75ZM34.16,8.12A1.81,1.81,0,1,1,36,6.31,1.81,1.81,0,0,1,34.16,8.12Z"/><path class="cls-1" d="M51.4,54.39v1.66H44.11v-9.9h2.07v8.24Z"/><path class="cls-1" d="M61.48,48.92a6.44,6.44,0,0,1,.34,2.18,5.9,5.9,0,0,1-.58,2.72,4,4,0,0,1-1.65,1.77,5.52,5.52,0,0,1-5.1,0l-.69,1H52.6L53.69,55a4.45,4.45,0,0,1-1-1.66,6.36,6.36,0,0,1-.36-2.21,6,6,0,0,1,.57-2.72,4.1,4.1,0,0,1,1.66-1.76A5.06,5.06,0,0,1,57.07,46a5,5,0,0,1,2.64.68l.61-.86h1.2l-1.05,1.47A4.29,4.29,0,0,1,61.48,48.92Zm-6.36-.35a4.1,4.1,0,0,0-.68,2.53,4.41,4.41,0,0,0,.5,2.25l3.64-5.19a2.46,2.46,0,0,0-1.51-.46A2.35,2.35,0,0,0,55.12,48.57ZM59,53.63a4,4,0,0,0,.69-2.53A4.63,4.63,0,0,0,59.24,49L55.63,54.1a2.47,2.47,0,0,0,1.44.41A2.29,2.29,0,0,0,59,53.63Z"/><path class="cls-1" d="M67.81,52.26H66v3.79h-2v-9.9h4.36a4,4,0,0,1,2.65.8,2.82,2.82,0,0,1,1,2.26A3,3,0,0,1,71.35,51a2.88,2.88,0,0,1-1.5,1l2.61,4H70.13ZM66,50.68h2a2.11,2.11,0,0,0,1.33-.35,1.6,1.6,0,0,0,0-2.18A2.11,2.11,0,0,0,68,47.8H66Z"/><path class="cls-1" d="M82.61,56.05H80.24l-3.46-5.82-.86-1.66h0L76,50.32v5.73H74.11v-9.9h2.35L79.93,52l.85,1.68h0l-.06-1.76V46.15h1.86Z"/><path class="cls-1" d="M51.94,62.82H48.62v8.23H46.55V62.82H43.22V61.15h8.72Z"/><path class="cls-1" d="M61.27,69.39v1.66H53.63v-9.9h7.43v1.67H55.7v2.46h4.22v1.59H55.7v2.52Z"/><path class="cls-1" d="M69.92,70.47a4.68,4.68,0,0,1-2.65.73,5.05,5.05,0,0,1-2.54-.61,4.12,4.12,0,0,1-1.66-1.77,6.77,6.77,0,0,1,0-5.44,4.13,4.13,0,0,1,1.65-1.76A5,5,0,0,1,67.24,61a5,5,0,0,1,2.61.65,3.31,3.31,0,0,1,1.48,1.92l-1.87.79a2.29,2.29,0,0,0-.75-1.27,2.22,2.22,0,0,0-1.38-.39,2.41,2.41,0,0,0-2,.88,4,4,0,0,0-.71,2.52,4,4,0,0,0,.69,2.52,2.33,2.33,0,0,0,2,.89,2.15,2.15,0,0,0,2.28-1.76l1.91.57A3.78,3.78,0,0,1,69.92,70.47Z"/><path class="cls-1" d="M81.74,61.15v9.9H79.67V66.88H75.31v4.17H73.24v-9.9h2.07v4.07h4.36V61.15Z"/><circle class="cls-1" cx="86.3" cy="54.64" r="1.41"/></g></g></svg>